<svg width="48" height="36" viewBox="0 0 48 36" fill="none" xmlns="http://www.w3.org/2000/svg">
<path fill-rule="evenodd" clip-rule="evenodd" d="M33.742 2.624C33.178 1.096 31.722 0 30 0C27.404 0 25.374 2.488 26.192 5.164C26.8466 4.93126 27.5227 4.64419 28.224 4.34646L28.224 4.34645C29.903 3.63358 31.726 2.8596 33.742 2.624ZM26 20C26 18.896 25.106 18 24 18C22.894 18 22 18.896 22 20C22 21.104 22.894 22 24 22C25.106 22 26 21.104 26 20ZM36.636 29.746C39.562 29.124 41.578 26.766 40.928 23.292C43.726 26.326 40.618 31.19 36.636 29.746ZM8.634 29.746C11.56 29.124 13.576 26.766 12.926 23.292C15.724 26.326 12.614 31.19 8.634 29.746ZM14.258 2.624C14.822 1.096 16.278 0 18 0C20.596 0 22.626 2.488 21.808 5.164C21.1536 4.93133 20.4776 4.64452 19.7766 4.34708C18.0974 3.6346 16.2743 2.86104 14.258 2.624ZM20.268 10.9879C22.684 11.7799 25.302 11.7839 27.73 10.9879C29.1205 10.5338 30.2685 10.0404 31.2399 9.62286C33.9223 8.47002 35.2582 7.89589 36.634 10.3259C36.8749 10.7505 37.2192 11.3553 37.6 12.0243C38.4586 13.5326 39.5026 15.3667 39.964 16.1939C34.256 15.0439 28.82 19.0259 28.084 24.7019C25.618 23.4619 22.496 23.4079 19.916 24.7019C19.178 19.0239 13.744 15.0439 8.034 16.1939C8.51889 15.3295 9.24728 14.0502 9.96128 12.7961L9.96167 12.7954L9.96216 12.7945L9.96258 12.7938L9.96291 12.7932L9.96384 12.7916C10.4682 11.9057 10.9652 11.0328 11.364 10.3279C12.7391 7.89641 14.0732 8.46948 16.76 9.62359C17.7308 10.0406 18.8783 10.5335 20.268 10.9879ZM28.8281 6.26647C30.6759 5.48505 32.6785 4.63818 34.61 4.63818C36.606 4.63818 38.524 5.54218 40.118 8.35818C40.6432 9.28674 41.1476 10.1719 41.6296 11.0176C45.5635 17.9208 48 22.1962 48 26.0002C48 31.5222 43.524 36.0002 38 36.0002C33.6077 36.0002 31.5345 33.5623 29.6426 31.3376C28.0551 29.4708 26.5952 27.7542 24 27.7542C21.4048 27.7542 19.9449 29.4708 18.3574 31.3376C16.4655 33.5623 14.3923 36.0002 10 36.0002C4.476 36.0002 0 31.5222 0 26.0002C0 22.1971 2.43533 17.9228 6.36771 11.021L6.36772 11.021L6.36775 11.0209L6.36784 11.0208C6.85058 10.1735 7.35588 9.28663 7.882 8.35618C9.474 5.54218 11.394 4.63818 13.39 4.63818C15.3225 4.63818 17.3272 5.48597 19.1758 6.26774C19.9922 6.613 20.7781 6.94539 21.514 7.18618C23.116 7.71218 24.862 7.71818 26.486 7.18618C27.2234 6.9451 28.0106 6.61219 28.8281 6.26647ZM38 32C34.692 32 32 29.308 32 26C32 22.692 34.692 20 38 20C41.308 20 44 22.692 44 26C44 29.308 41.308 32 38 32ZM4 26C4 29.308 6.692 32 10 32C13.308 32 16 29.308 16 26C16 22.692 13.308 20 10 20C6.692 20 4 22.692 4 26Z" fill="#333333"/>
</svg>
